<svg xmlns="http://www.w3.org/2000/svg" viewBox="0 0 613 431" preserveAspectRatio="xMidYMid meet">
<g>
	<g>
		<path id = "ornamentPath" stroke=""   stroke-width="" stroke-miterlimit="100"  
    d="m267.308999,221.850982c26.229,0 53.573,-74.03 87.058,-74.03c11.16,0 35.156,9.982 35.156,46.582c0,42.422 -20.648,54.899 -34.6,54.899c-13.393,0 -19.531,-11.646 -19.531,-11.646c-2.232,16.636 -64.177,69.04 -64.177,130.593c0,79.02 69.757,79.853 69.757,3.327c0,-38.263 -27.344,-87.34 -45.76,-106.47c-18.417,-19.133 -19.532,-25.787 -19.532,-25.787s-4.465,13.311 -18.974,13.311c-42.971,0 -47.993,-102.313 0,-102.313c35.157,0 64.176,69.039 87.613,69.039c12.836,0 12.836,-20.795 3.908,-20.795c-16.742,0 -54.69,73.198 -73.664,101.479c-11.72,18.301 -9.487,32.44 -9.487,32.44s-21.764,-2.495 -21.764,19.964c0,26.617 23.438,26.617 23.438,7.486c0,-15.805 -11.719,-8.318 -11.719,-8.318s2.79,-8.317 11.719,-8.317c18.974,0 32.926,29.112 32.926,29.112c9.486,-64.049 102.682,-98.983 102.682,-177.172c0,-25.787 -13.951,-70.704 -45.76,-70.704c-46.32,0 -99.893,132.257 -150.118,132.257c-24.555,0 -24.555,-22.46 -15.625,-22.46c12.835,0 7.254,39.927 -14.51,39.927c-31.251,0 -30.693,-61.553 -6.138,-61.553c7.812,0 11.718,24.123 -6.697,24.123c-22.88,0 -21.207,-48.246 3.348,-48.246c34.042,0 27.903,68.208 -5.581,68.208c-24.555,0 -25.112,-29.945 -16.741,-29.945c10.044,0 2.79,27.449 -14.51,27.449c-11.16,0 -12.835,-17.467 -6.696,-17.467c7.812,0 4.464,22.456 -7.255,22.456c-5.581,0 -5.581,-6.651 -5.581,-6.651c-13.394,11.644 -18.974,-1.666 -18.974,-1.666c18.974,1.666 29.577,-31.608 41.297,-31.608c6.696,0 8.371,17.469 -3.349,17.469c-11.719,0 -14.509,-12.478 -14.509,-12.478s-5.581,14.972 -16.184,14.972s-9.487,-13.309 -4.464,-13.309c8.371,0 2.79,24.953 -8.929,24.953c-5.58,0 -5.022,-6.652 -5.022,-6.652s-1.674,4.99 -5.022,4.99c-7.812,0 -4.464,-10.814 -4.464,-10.814s-7.255,10.814 -17.3,10.814c-16.184,0 -19.532,-15.805 -19.532,-15.805s6.139,5.822 11.719,5.822c23.438,0 38.506,-32.44 51.899,-32.44c9.487,0 10.045,17.469 -5.022,17.469c-14.51,0 -13.394,-14.142 -13.394,-14.142c-1.674,3.328 -6.697,12.477 -11.719,12.477c-5.581,0 -6.139,-4.99 -6.139,-4.99s-5.581,12.477 -11.161,12.477c-7.813,0 -7.255,-9.148 -7.255,-9.148s-3.906,8.317 -8.929,8.317c-10.044,0 -4.464,-16.636 -4.464,-16.636c-16.184,7.486 -29.577,-9.982 -29.577,-24.955c0,-12.477 3.348,-17.467 3.906,-17.467l-1.674,6.654c0,0 -1.674,3.327 -1.674,10.813c0,7.487 6.697,25.786 21.206,25.786c5.581,0 11.719,-5.821 11.719,-5.821s-9.486,19.131 0.558,19.131c6.139,0 11.719,-14.972 11.719,-14.972s-3.906,17.467 4.465,17.467c6.697,0 13.393,-19.963 13.393,-19.963s-2.791,12.477 3.907,12.477c6.139,0 13.951,-19.131 13.951,-19.131s-5.022,19.962 11.161,19.962c10.603,0 11.719,-14.14 4.464,-14.14c-8.929,0 -32.367,33.271 -51.341,33.271c-3.348,0 -8.371,-2.495 -8.371,-2.495s4.464,9.15 15.625,9.15s19.532,-13.309 19.532,-13.309s-3.906,13.309 2.791,13.309c2.79,0 7.255,-10.813 7.255,-10.813s-3.349,11.646 2.79,11.646c11.719,0 15.068,-22.459 8.929,-22.459c-4.465,0 -3.349,9.982 5.581,9.982c8.371,0 16.184,-13.311 17.857,-19.133c0,0 -3.348,17.469 11.719,17.469c8.371,0 8.371,-14.141 2.791,-14.141c-8.929,0 -22.322,31.609 -37.948,30.776c0,0 0,4.159 7.255,4.159c6.696,0 11.719,-9.982 11.719,-9.982s-4.465,12.477 2.79,12.477c10.045,0 11.719,-19.963 6.696,-19.963c-3.348,0 -3.906,13.31 8.371,13.31c14.51,0 20.09,-24.123 12.835,-24.123c-6.697,0 -5.022,27.449 17.858,27.449c31.25,0 34.6,-65.712 5.581,-65.712c-24.555,0 -24.555,45.75 -4.465,45.75c13.394,0 15.068,-20.796 5.023,-20.796c-18.974,0 -23.438,58.227 8.371,58.227c21.764,0 22.322,-37.431 13.951,-37.431c-6.696,0 -5.581,19.131 15.626,19.131c51.899,0 99.334,-131.424 151.791,-131.424c27.344,0 47.994,37.43 47.994,71.535c0,78.189 -96.545,115.62 -105.475,178.835l1.117,5.823c0,0 -18.416,-34.104 -33.483,-34.104c-5.023,0 -8.371,4.16 -8.371,4.16s8.928,-4.991 8.928,10.813c0,19.131 -26.229,24.123 -26.229,-6.655c0,-24.123 21.764,-21.626 21.764,-21.626s-1.116,-13.309 7.813,-29.944c10.045,-17.469 53.573,-84.844 56.923,-89.834c5.021,-7.487 27.344,-29.945 27.344,-2.497c0,7.487 -7.256,11.646 -12.836,11.646c-25.67,0 -55.805,-69.04 -87.614,-69.04c-43.529,0 -40.738,98.152 -0.558,98.152c18.416,0 21.763,-16.636 21.763,-16.636s0,8.317 20.09,29.944c20.092,21.627 45.762,65.711 45.762,106.47c0,82.35 -72.549,79.021 -72.549,0.832c0,-67.376 62.502,-111.462 63.619,-138.077c0,0 6.139,14.14 21.766,14.14c15.066,0 31.25,-14.973 31.25,-51.571c0,-35.768 -22.322,-45.75 -31.811,-45.75c-32.926,0 -61.385,74.029 -87.614,74.029c-13.951,0 -16.742,-26.617 4.465,-19.13c10.045,2.495 20.648,17.467 26.229,24.954c7.811,9.149 41.854,56.562 45.201,64.048c3.908,8.319 12.836,23.29 7.256,36.6c0,0 23.438,0 23.438,26.618c0,29.112 -28.461,28.281 -28.461,7.487c0,-14.974 7.814,-15.806 7.814,-15.806s-30.137,-15.805 -39.064,30.776c0,0 1.115,-16.636 -31.811,-62.386c-30.693,-43.252 -75.896,-56.562 -75.896,-123.106c0,-44.084 26.229,-66.543 47.436,-66.543c51.341,0 104.915,127.266 157.929,127.266c13.951,0 13.951,-16.636 8.93,-16.636c-8.371,0 -7.814,36.599 16.184,36.599c32.367,0 27.344,-59.058 7.812,-59.058c-10.045,0 -8.928,20.795 4.465,20.795c20.648,0 20.648,-44.917 -3.35,-44.917c-29.018,0 -26.227,64.88 5.023,64.88c23.439,0 25.111,-26.618 17.859,-26.618c-7.256,0 -1.676,23.292 12.834,23.292c12.836,0 12.277,-13.311 8.369,-13.311c-5.02,0 -3.904,19.962 6.699,19.962c7.812,0 2.789,-12.476 2.789,-12.476s5.023,9.982 11.719,9.982c7.256,0 7.814,-4.158 7.814,-4.158c-16.186,0.831 -29.578,-30.778 -37.949,-30.778c-6.695,0 -5.58,14.141 2.232,14.141c15.068,0 12.279,-17.469 12.279,-17.469c1.115,5.824 8.928,19.133 17.299,19.133c9.486,0 10.043,-9.149 5.58,-9.149c-5.58,0 -2.232,22.457 8.928,22.457c5.582,0 2.791,-12.477 2.791,-12.477s4.465,10.814 7.812,10.814c6.697,0 2.232,-13.31 2.232,-13.31s8.371,13.31 19.533,13.31c11.16,0 15.625,-9.15 15.625,-9.15s-4.465,1.663 -8.371,1.663c-18.973,0 -42.412,-32.44 -51.342,-32.44c-7.254,0 -6.137,14.973 3.906,14.973c16.742,0 11.721,-20.794 11.721,-20.794s7.811,18.298 14.51,18.298c6.137,0 3.348,-12.477 3.348,-12.477s7.254,19.963 13.951,19.963c8.371,0 3.348,-15.805 3.348,-15.805s6.697,14.141 11.721,14.141c10.602,0 1.672,-18.299 1.672,-18.299s5.582,4.99 11.719,4.99c14.512,0 20.092,-18.298 20.092,-24.954c0,-8.318 -1.117,-10.813 -1.117,-10.813l-1.672,-7.486c1.115,0.832 4.463,5.823 4.463,18.299c0,14.142 -13.393,32.44 -30.135,24.122c0,0 5.58,16.636 -5.021,16.636c-4.465,0 -8.371,-8.317 -8.371,-8.317s1.115,9.15 -6.697,9.15c-5.58,0 -11.719,-12.479 -11.719,-12.479s-0.559,5.824 -5.58,5.824c-5.582,0 -10.047,-9.983 -11.719,-12.477c0,0 0.557,12.477 -14.512,12.477c-14.51,0 -13.393,-16.636 -4.463,-16.636c13.393,0 28.461,31.607 52.457,31.607c5.023,0 11.16,-4.991 11.16,-4.991s-3.348,16.636 -19.531,16.636c-10.045,0 -17.301,-11.645 -17.301,-11.645s2.791,10.813 -4.463,10.813c-2.791,0 -4.465,-4.99 -4.465,-4.99s0,6.654 -5.582,6.654c-11.719,0 -16.74,-24.954 -8.928,-24.954c5.023,0 6.139,12.477 -4.465,12.477c-10.045,0 -16.184,-13.309 -16.184,-13.309s-2.791,11.646 -14.51,11.646c-12.275,0 -10.604,-17.468 -3.348,-17.468c11.719,0 22.322,33.272 41.297,31.608c0,0 -5.582,14.141 -18.975,1.664c0,0 0,7.486 -5.023,7.486c-12.275,0 -15.066,-23.291 -7.812,-23.291c6.697,0 5.023,17.467 -6.695,17.467c-16.742,0 -23.998,-28.28 -13.951,-28.28c7.812,0 7.252,29.945 -17.303,29.945c-32.922,0 -39.621,-67.377 -5.58,-67.377c25.115,0 26.787,48.245 3.35,48.245c-18.416,0 -14.51,-24.123 -6.697,-24.123c24.555,0 26.23,61.553 -5.023,61.553c-25.67,0 -26.785,-38.261 -17.299,-38.261c8.93,0 7.256,19.131 -9.486,19.131c-57.479,0 -108.264,-127.266 -155.697,-127.266c-20.09,0 -46.877,20.795 -46.877,63.216c0,58.226 35.715,77.359 64.734,109.798c28.461,32.439 41.856,68.206 41.856,68.206c7.252,-23.29 20.646,-25.785 30.691,-25.785c11.162,0 13.395,9.981 13.395,9.981s-11.719,-6.653 -11.719,9.151c0,20.795 25.111,19.962 25.111,-4.991c0,-29.946 -26.787,-26.618 -26.787,-26.618s3.348,-2.497 5.023,-9.981c4.463,-21.628 -75.896,-118.115 -79.245,-117.284c-15.063,-4.984 -16.178,17.474 -3.902,17.474zm189.741,-85.675c0,23.291 -16.186,50.74 -35.717,50.74c-19.533,0 -18.975,-16.636 -11.162,-16.636c21.207,0 10.604,108.135 -30.693,108.135c-17.299,0 -21.764,-25.785 -8.371,-25.785c27.346,0 17.859,67.373 -3.904,67.373c-12.836,0 -16.742,-19.13 -3.35,-19.13c14.51,0 12.836,45.748 25.113,45.748c6.695,0 5.023,-10.813 5.023,-10.813c8.928,6.655 12.275,-1.663 12.275,-7.486c0,-4.989 -2.232,-7.486 -2.232,-7.486s-8.371,-2.494 -6.695,-6.652c1.115,-3.328 8.371,4.158 8.371,4.158c8.928,4.991 37.389,-4.158 37.389,-36.599c0,-31.609 -30.137,-26.619 -30.137,-4.992c0,3.328 0,13.31 6.141,13.31c7.254,0 7.812,-8.317 7.812,-8.317s3.906,23.29 -19.533,23.29c-59.152,0 -119.981,-133.088 -149.558,-133.088c-8.372,0 -16.184,1.664 -16.184,9.982c0,9.981 10.602,14.141 10.602,-14.141c0,-18.299 -11.718,-65.712 -53.573,-65.712c-47.992,0 -78.127,50.74 -103.798,50.74c-17.3,0 -12.835,-16.636 -12.835,-16.636s-6.697,5.823 -6.697,14.141c0,14.141 8.929,24.122 23.438,24.122s15.625,-14.972 6.138,-14.972c-8.929,0 -26.229,19.131 -41.296,19.131c-15.625,0 -11.719,-16.636 -11.719,-16.636s-6.139,4.159 -6.139,12.477c0,14.141 6.697,22.458 15.626,22.458c8.929,0 10.045,-10.812 1.116,-10.812c-11.162,0 -22.323,11.644 -39.622,11.644c-17.3,0 -20.648,-20.794 -20.648,-20.794l1.674,-6.654c0,2.496 2.79,24.955 19.532,24.955c18.416,0 26.787,-9.982 39.064,-9.982c11.719,0 11.161,14.142 0.558,14.142c-11.162,0 -18.416,-9.983 -18.416,-24.955c0,-11.645 10.045,-14.972 10.045,-14.972s-5.022,17.468 8.929,17.468c15.625,0 32.367,-19.963 39.064,-19.963c12.835,0 15.067,19.131 -3.349,19.131c-17.857,0 -25.112,-14.141 -25.112,-25.786c0,-10.813 8.371,-17.468 11.719,-17.468c0,0 -1.674,4.159 -1.674,9.15c0,4.991 2.791,9.15 10.045,9.15c25.113,0 56.922,-49.909 103.798,-49.909c39.622,0 56.922,43.253 56.922,67.376c0,25.786 -14.51,28.28 -14.51,13.309c0,-7.487 6.138,-11.646 16.741,-11.646c36.274,0 93.196,133.918 150.116,133.918c15.068,0 18.416,-16.636 18.416,-16.636s-2.789,4.16 -5.58,4.16c-2.789,0 -9.486,-1.663 -9.486,-13.308c0,-27.451 35.156,-28.282 35.156,4.989s-30.691,39.097 -40.178,37.431c0,0 3.348,2.497 3.348,8.317c0,6.655 -5.58,13.311 -11.719,10.815c0,0 -1.676,8.317 -7.814,8.317c-13.951,0 -11.16,-44.918 -25.67,-44.918c-8.93,0 -7.812,14.974 2.791,14.974c20.09,0 27.346,-64.049 3.906,-64.049c-10.047,0 -7.814,22.458 8.928,22.458c36.273,0 49.668,-104.806 30.693,-104.806c-6.139,0 -7.812,14.141 11.162,14.141c13.393,0 32.926,-19.132 32.926,-54.067c0,-34.936 -16.744,-37.432 -20.648,-37.432c-9.486,0 -17.859,7.487 -17.859,23.291c0,6.654 2.232,24.953 13.395,24.953c11.719,0 18.973,-18.299 6.697,-18.299c-12.279,0 -12.279,39.094 4.463,39.094c6.697,0 8.93,-13.309 3.35,-13.309c-9.488,0 -7.812,31.609 7.254,31.609c11.721,0 10.045,-11.646 6.697,-11.646c-7.812,0 -6.697,21.626 5.58,21.626c12.834,0 15.066,-19.963 7.814,-19.963c-6.699,0 -7.256,27.45 2.23,27.45c8.371,0 11.16,-12.478 5.58,-12.478c-6.695,0 -8.371,26.617 4.465,26.617s6.139,-19.13 6.139,-19.13s5.58,10.812 10.045,10.812c12.277,0 2.232,-15.804 2.232,-15.804s6.697,8.317 12.277,8.317c16.742,0 17.301,-14.972 17.301,-14.972s-3.908,4.159 -11.162,4.159c-25.113,0 -35.717,-32.44 -47.992,-32.44c-9.486,0 -6.139,14.141 4.465,14.141c6.695,0 12.834,-4.159 12.834,-11.646c0,-7.486 -3.348,-9.15 -3.348,-9.15s-5.58,2.496 -5.58,-0.831c0,-2.496 3.348,-0.833 3.904,-0.833c1.676,0 15.068,0 15.068,-16.636c0,-14.972 -11.719,-15.804 -13.393,-15.804l-3.348,-0.832c0,0 1.672,0 3.348,-0.832c2.232,0 13.393,0.832 14.508,17.468c0.561,17.469 -13.951,17.469 -13.951,17.469s4.465,1.663 4.465,9.981c0,9.15 -5.021,13.309 -15.068,13.309c-11.16,0 -15.066,-17.468 -6.695,-17.468c15.627,0 28.461,31.608 50.783,31.608c11.162,0 12.836,-7.486 12.836,-7.486s1.117,22.459 -18.418,22.459c-5.02,0 -8.928,-4.159 -8.928,-4.159s3.908,12.477 -6.139,12.477c-4.465,0 -7.254,-5.824 -7.254,-5.824s1.674,12.477 -8.93,12.477c-8.371,0 -11.16,-9.98 -11.16,-17.467c0,-11.645 10.604,-15.804 10.604,-4.991s-18.418,14.972 -18.418,-9.15c0,-14.972 11.719,-15.804 11.719,-4.159c0,19.963 -25.111,19.963 -25.111,-1.664c0,-8.317 10.045,-14.141 10.045,-2.496c0,14.972 -25.111,14.141 -25.111,-12.477c0,-14.972 11.719,-17.468 11.719,-5.823c0,14.142 -22.322,13.31 -22.322,-15.803c0,-21.627 17.299,-21.627 17.299,-9.981c0,16.636 -29.018,24.954 -29.018,-11.646c0,-16.636 10.043,-26.617 20.09,-26.617c17.857,0.002 23.441,20.796 23.441,44.087zm61.385,15.804c7.254,0 10.604,-3.327 10.604,-9.15c0,-5.822 -1.676,-8.318 -1.676,-8.318c3.35,0 11.162,5.823 11.162,17.468s-7.254,24.954 -25.113,24.954c-17.855,0 -15.625,-18.3 -3.904,-18.3c7.252,0 23.438,19.132 40.178,19.132c13.395,0 8.371,-18.3 8.371,-18.3s10.045,4.159 10.045,16.636c0,13.309 -7.254,24.123 -18.416,24.123c-10.604,0 -11.16,-14.14 1.117,-14.14s20.648,9.981 39.064,9.981c16.74,0 18.416,-21.627 18.975,-24.955l1.672,7.486c0,0 -3.906,19.963 -20.646,19.963c-17.299,0 -28.463,-11.645 -39.064,-11.645c-9.488,0 -7.812,11.645 0.559,11.645s16.184,-9.15 16.184,-24.122c0,-7.486 -6.697,-11.645 -6.697,-11.645s3.906,16.636 -11.162,16.636c-15.066,0 -32.926,-19.963 -41.854,-19.963s-8.371,15.804 6.139,15.804s23.439,-9.982 23.439,-24.122c0,-9.15 -6.139,-14.141 -6.139,-14.141s3.906,17.468 -13.395,17.468c-25.67,0 -54.689,-50.74 -102.682,-50.74c-61.943,0 -68.643,82.349 -51.9,82.349c5.58,0 7.256,-16.637 -5.021,-16.637c-41.295,0 -83.151,138.079 -146.769,138.079c-27.902,0 -29.019,-24.954 -29.019,-24.954c6.138,11.645 14.509,3.327 14.509,-9.149c0,-24.122 -29.019,-24.954 -29.019,9.149c0,27.449 20.09,42.421 39.064,39.095c0,0 8.371,-9.982 9.486,-4.992c0.559,4.159 -8.371,5.825 -8.371,5.825c-2.791,6.651 0,14.971 4.465,14.971c4.464,0 5.581,-0.832 5.581,-0.832s-0.559,9.981 6.138,9.981c13.394,0 13.951,-42.423 27.902,-42.423c11.162,0 8.93,19.965 -4.464,19.965c-29.577,0 -27.903,-69.871 -8.371,-69.871c15.626,0 10.604,24.123 -5.022,24.123c-23.438,0 -42.412,-44.918 -42.412,-82.349c0,-34.104 13.951,-34.104 13.951,-24.123c0,31.609 -54.689,22.459 -54.689,-43.253c0,-49.076 48.55,-45.749 48.55,-10.813c0,36.599 -29.576,28.281 -29.576,11.645c0,-11.645 17.857,-11.645 17.857,9.982c0,29.114 -22.88,29.945 -22.88,14.973c0,-11.646 12.277,-8.318 12.277,5.822c0,26.618 -25.671,27.45 -25.671,14.141c0,-12.477 9.487,-6.654 9.487,0.832c0,21.626 -24.555,22.458 -24.555,1.664c0,-10.813 12.277,-9.982 12.277,4.991c0,24.121 -18.416,19.962 -18.416,9.981c0,-12.477 10.604,-7.486 10.604,4.16c0,7.487 -3.349,17.467 -11.72,17.467c-10.044,0 -8.928,-12.477 -8.928,-12.477s-2.791,5.822 -6.697,5.822c-11.161,0 -6.139,-12.476 -6.139,-12.476s-4.464,4.158 -8.929,4.158c-19.532,0 -19.532,-23.29 -19.532,-23.29s2.791,8.318 13.394,8.318c22.88,0 35.158,-31.608 51.341,-31.608c7.812,0 3.907,17.468 -7.255,17.468c-10.044,0 -15.067,-4.99 -15.067,-13.31c0,-8.317 4.465,-9.981 4.465,-9.981s-13.952,0 -13.394,-17.467c0.558,-16.637 11.718,-17.468 13.951,-17.468c2.232,0.831 3.906,0.831 3.906,0.831l-3.349,0.832c-1.674,0 -13.951,0.832 -13.951,15.805c0,16.636 13.393,16.636 14.509,16.636c1.674,0 5.023,-2.496 5.023,0.832s-6.139,0.833 -6.139,0.833s-3.907,1.663 -3.907,9.148c0,7.487 6.697,11.646 13.394,11.646c10.604,0 13.951,-14.141 5.023,-14.141c-13.394,0 -23.439,32.441 -48.551,32.441c-7.255,0 -10.603,-4.159 -10.603,-4.159s0.558,14.972 17.299,14.972c5.023,0 11.719,-8.318 11.719,-8.318s-10.044,15.805 2.791,15.805c3.906,0 8.929,-11.646 8.929,-11.646s-6.138,19.132 6.697,19.132c13.394,0 11.72,-24.955 5.023,-24.955s-3.349,11.645 5.022,11.645c10.045,0 9.487,-26.617 2.232,-26.617s-4.464,19.132 7.813,19.132s13.393,-21.627 6.138,-21.627c-4.464,0 -5.022,11.645 6.697,11.645c15.068,0 16.742,-31.608 7.255,-31.608c-6.139,0 -3.348,13.309 3.349,13.309c16.742,0 16.184,-38.263 3.907,-38.263c-12.277,0 -5.023,17.468 6.697,17.468c11.161,0 13.951,-17.468 13.951,-24.955c0,-32.439 -45.203,-34.936 -45.203,9.982c0,70.702 51.341,67.376 51.341,46.582c0,-5.823 -10.604,-11.646 -10.604,24.953c0,41.59 22.881,78.189 40.739,78.189c13.951,0 17.857,-21.627 6.139,-21.627c-19.532,0 -20.09,67.378 7.812,67.378c10.045,0 13.394,-15.805 3.349,-15.805c-12.277,0 -12.836,42.421 -26.787,42.421c-7.813,0 -7.813,-9.98 -7.813,-9.98s-15.067,6.653 -10.045,-14.974c0,0 -39.063,3.327 -39.063,-42.421c0,-37.431 32.367,-32.44 32.367,-9.15c0,21.626 -14.509,16.636 -14.509,16.636s6.138,15.805 26.229,15.805c65.292,0 102.125,-137.248 147.884,-137.248c12.836,0 12.836,19.131 4.465,19.131c-18.973,0 -12.836,-84.843 51.898,-84.843c46.878,-0.003 78.128,49.905 102.683,49.905zm-80.92,39.095c0,50.739 -64.176,50.739 -64.176,-13.309c0,-35.768 27.346,-51.572 42.412,-51.572c16.184,0 33.484,14.972 51.9,14.972c10.602,0 18.416,-6.655 18.416,-16.636c0,-10.813 -3.348,-11.646 -3.348,-11.646l3.348,0.832c5.021,7.486 2.232,28.281 -16.742,28.281c-20.09,0 -36.83,-14.141 -51.342,-14.141c-13.951,0 -42.412,9.15 -42.412,49.908c0,64.879 61.387,60.721 61.387,13.309c0,-26.618 -16.184,-39.095 -28.461,-40.759c-10.045,0 -20.648,5.822 -20.648,16.636c0,14.141 17.859,14.141 17.859,-12.477c0,-60.721 -65.852,-62.385 -65.852,-25.786c0,15.804 13.395,20.795 13.395,2.495c0,-29.113 -40.182,-26.618 -40.182,-2.495c0,10.813 12.277,10.813 12.277,-6.655c0,-25.786 -36.832,-41.59 -36.832,-41.59c21.763,-10.813 36.832,-52.403 58.037,-52.403c21.207,0 16.742,29.113 2.232,29.113c-15.066,0 -43.527,-46.581 -46.875,-51.573c-7.256,-10.812 -18.975,0.833 -10.046,14.141c8.371,11.646 23.998,24.123 31.251,37.432c7.254,12.476 6.139,21.626 0.559,21.626c-10.604,0 -4.465,-34.935 26.787,-34.935c20.646,0 36.273,20.794 36.273,40.758c0,36.599 -36.273,41.59 -36.273,9.15c0,-14.973 15.625,-19.131 17.857,-9.15c0,0 0.557,-19.131 -15.625,-19.131c-13.393,0 -21.764,12.477 -21.764,12.477s17.299,-8.318 17.299,11.645c0,11.646 -8.928,12.478 -8.928,12.478s1.672,-9.981 -8.371,-9.981c-8.932,0 -12.836,18.299 -12.836,27.449c0,8.318 10.604,56.562 57.479,88.171c0,0 -8.928,2.494 -11.719,9.149c-2.232,3.327 -9.486,9.981 -13.951,10.812c0,0 0.559,2.495 0.559,7.487c0,45.748 -64.735,79.853 -64.735,134.75c0,39.096 37.948,51.572 37.948,-1.662c0,-54.898 -65.293,-96.49 -65.293,-131.424c0,-7.487 2.233,-10.814 2.233,-10.814s-5.581,-0.832 -12.836,-9.981c-7.254,-9.983 -8.929,-8.318 -8.929,-8.318s54.689,-40.759 54.689,-87.34c0,-6.654 -3.349,-28.281 -15.067,-28.281c-6.139,0 -3.906,8.318 -3.906,8.318s-1.116,0.832 -3.349,0.832c-2.79,0 -9.487,-3.327 -9.487,-14.14c0,-9.982 8.371,-19.963 20.09,-8.318c0,0 -8.929,-16.636 -25.112,-16.636c-16.184,0 -17.3,20.795 -16.184,24.954c0,0 0,-6.655 7.813,-6.655c6.697,0 10.044,9.15 10.044,16.637c0,24.954 -35.158,28.28 -35.158,-12.477c0,-58.226 68.641,-52.404 68.641,-14.973c0,9.15 -8.928,13.31 -8.928,0c0,-7.485 25.111,-33.271 34.043,-43.253c15.066,-17.468 1.115,-30.777 -11.164,-14.141c-8.928,12.477 -26.228,42.421 -41.853,42.421c-15.067,0 -18.974,-30.776 1.674,-30.776c16.741,0 36.831,40.758 56.362,60.722c0,0 -36.272,6.654 -36.272,39.926c0,13.309 13.393,24.122 13.393,4.99c0,-24.122 -41.854,-29.945 -41.854,0.833c0,16.636 13.951,18.299 13.951,-1.664c0,-41.59 -68.082,-32.44 -68.082,23.29c0,22.458 18.416,32.44 18.416,14.972c0,-24.123 -45.203,-24.123 -45.203,22.458c0,48.245 60.828,52.403 60.828,-12.477c0,-40.758 -27.902,-49.908 -42.412,-49.908c-13.952,0 -31.251,14.973 -50.783,14.973c-19.533,0 -22.323,-22.458 -17.3,-29.113l3.906,-0.832c0,0 -3.906,0.832 -3.906,11.646c0,9.981 7.813,15.804 18.416,15.804c18.416,0 35.715,-14.972 51.342,-14.972c16.184,0 43.528,15.804 43.528,52.403c0,63.217 -64.735,64.049 -64.735,12.477c0,-49.908 47.993,-47.412 47.993,-21.626c0,19.131 -21.764,8.318 -21.764,-14.141c0,-61.553 72.547,-67.376 72.547,-24.954c0,22.459 -17.299,19.963 -17.299,1.664c0,-34.936 44.645,-23.291 44.645,-0.833c0,19.964 -16.742,11.646 -16.742,-5.822s10.044,-30.776 34.041,-40.758c0,0 -22.32,-24.954 -33.483,-43.253c-11.719,-19.132 -32.926,-19.132 -32.926,-0.833c0,12.477 8.93,13.309 12.836,13.309c3.348,0 15.068,-1.664 41.295,-41.59c0,0 10.605,-14.973 17.857,-5.823c6.139,8.318 -5.021,21.627 -7.812,24.122c-2.789,2.496 -23.996,28.282 -27.902,30.776c-2.79,3.327 -8.929,16.636 -0.559,16.636c8.373,0 0.559,-34.104 -26.786,-34.104c-47.993,0 -44.645,72.367 -17.858,72.367c16.184,0 16.742,-32.441 4.464,-32.441c-8.371,0 -6.138,12.477 -6.138,12.477s-3.349,-4.991 -3.349,-12.477c0,-6.654 3.907,-20.794 20.09,-20.794c13.394,0 24.555,14.972 26.787,21.627c0,0 -5.581,-7.486 -13.393,-7.486c-10.603,0 -12.277,24.122 -0.559,24.122c0,0 -1.674,-9.981 7.813,-9.981c9.487,0 16.184,19.964 16.184,31.608c0,11.646 -5.023,44.917 -51.899,85.675c0,0 5.023,4.159 10.045,10.813c4.465,6.655 8.929,8.318 12.277,6.655c0,0 -4.464,0 -4.464,12.478c0,11.645 1.674,17.467 10.603,29.112c9.487,12.478 55.247,58.226 55.247,102.312c0,50.738 -42.412,49.076 -42.412,-1.664c0,-49.909 63.619,-84.843 63.619,-131.424c0,-5.823 -2.232,-8.318 -2.232,-8.318s8.371,0 16.184,-9.981c7.812,-9.982 8.371,-9.982 8.371,-9.982s-53.572,-37.431 -53.572,-89.002c0,-18.3 10.043,-25.786 15.066,-25.786c5.58,0 7.812,3.327 7.812,5.822c0,0 6.695,0 6.695,-9.149c0,-9.15 -7.812,-16.637 -19.531,-5.823c0,0 8.371,-19.132 26.787,-19.132c15.066,0 16.184,21.626 15.066,25.786c0,0 -2.789,-7.486 -6.695,-7.486c-5.023,0 -10.045,4.992 -10.045,14.973c0,22.458 31.809,27.449 31.809,-14.141c0,-50.74 -64.176,-45.75 -64.176,-12.477c0,7.486 7.254,9.981 7.254,1.663c0,-11.645 -21.207,-33.272 -31.25,-45.749c-6.698,-6.655 -10.045,-16.637 -5.582,-23.291c4.464,-6.655 11.72,-1.664 16.742,6.654c5.023,9.15 27.902,45.75 41.854,45.75c10.047,0 14.51,-25.786 -2.232,-25.786c-18.414,0 -34.598,37.431 -51.34,49.076c0,0 32.367,18.3 32.367,40.758s-15.625,22.458 -15.625,9.15c0,-26.618 44.086,-25.787 44.086,1.664c0,19.131 -17.301,18.299 -17.301,-0.833c0,-40.757 69.201,-37.43 69.201,23.291c0,27.449 -20.65,31.608 -20.65,13.309c0,-14.972 16.742,-16.636 21.207,-16.636c12.279,0.835 29.019,14.144 29.019,41.594z"/>
	</g>
</g>
</svg>